<mxfile host="65bd71144e">
    <diagram id="L6ftzaXv-pbHl7mcJE_a" name="系统结构">
        <mxGraphModel dx="948" dy="790" grid="0" gridSize="10" guides="1" tooltips="1" connect="1" arrows="1" fold="1" page="1" pageScale="1" pageWidth="1100" pageHeight="850" background="#00CCCC" math="0" shadow="0">
            <root>
                <mxCell id="0"/>
                <mxCell id="1" parent="0"/>
                <mxCell id="13" value="" style="group;gradientColor=#7ea6e0;fillColor=#dae8fc;strokeColor=#6c8ebf;fontColor=#000000;" parent="1" vertex="1" connectable="0">
                    <mxGeometry x="38" y="232" width="790" height="161" as="geometry"/>
                </mxCell>
                <mxCell id="6" value="" style="rounded=0;whiteSpace=wrap;html=1;shadow=0;dashed=0;fontSize=14;fontColor=#000000;fillColor=#ffffff;align=left;verticalAlign=top;strokeColor=#000000;strokeWidth=2;" parent="13" vertex="1">
                    <mxGeometry width="790" height="161" as="geometry"/>
                </mxCell>
                <mxCell id="9" value="运营商服务层" style="rounded=0;whiteSpace=wrap;html=1;shadow=0;dashed=0;fontSize=14;strokeColor=#6c8ebf;strokeWidth=1;fillColor=#dae8fc;align=left;verticalAlign=middle;gradientColor=#7ea6e0;fontColor=#000000;" parent="13" vertex="1">
                    <mxGeometry width="90" height="158.7" as="geometry"/>
                </mxCell>
                <mxCell id="26" value="" style="image;html=1;image=img/lib/clip_art/networking/Cloud_Server_128x128.png;shadow=0;dashed=0;fontSize=14;fontColor=#000000;strokeColor=#000000;strokeWidth=1;fillColor=#009900;align=left;verticalAlign=middle;" parent="13" vertex="1">
                    <mxGeometry x="427" y="23" width="80" height="80" as="geometry"/>
                </mxCell>
                <mxCell id="27" value="" style="image;html=1;image=img/lib/clip_art/computers/Network_128x128.png;shadow=0;dashed=0;fontSize=14;fontColor=#000000;strokeColor=#000000;strokeWidth=1;fillColor=#009900;align=left;verticalAlign=middle;" parent="13" vertex="1">
                    <mxGeometry x="125" y="23" width="80" height="80" as="geometry"/>
                </mxCell>
                <mxCell id="28" value="" style="html=1;dashed=0;whitespace=wrap;fillColor=#2875E2;strokeColor=#ffffff;points=[[0.005,0.63,0],[0.1,0.2,0],[0.9,0.2,0],[0.5,0,0],[0.995,0.63,0],[0.72,0.99,0],[0.5,1,0],[0.28,0.99,0]];shape=mxgraph.kubernetes.icon;prIcon=api;shadow=0;fontSize=14;fontColor=#000000;align=left;verticalAlign=middle;" parent="13" vertex="1">
                    <mxGeometry x="308" y="34" width="50" height="48" as="geometry"/>
                </mxCell>
                <mxCell id="29" value="微信API" style="text;html=1;strokeColor=none;fillColor=none;align=center;verticalAlign=middle;whiteSpace=wrap;rounded=0;shadow=0;dashed=0;fontSize=14;fontColor=#000000;" parent="13" vertex="1">
                    <mxGeometry x="303" y="97" width="60" height="20" as="geometry"/>
                </mxCell>
                <mxCell id="32" value="网络运营商" style="text;html=1;strokeColor=none;fillColor=none;align=center;verticalAlign=middle;whiteSpace=wrap;rounded=0;shadow=0;dashed=0;fontSize=14;fontColor=#000000;" parent="13" vertex="1">
                    <mxGeometry x="129" y="113" width="81" height="20" as="geometry"/>
                </mxCell>
                <mxCell id="33" value="" style="image;html=1;image=img/lib/clip_art/networking/Cloud_Server_128x128.png;shadow=0;dashed=0;fontSize=14;fontColor=#000000;strokeColor=#000000;strokeWidth=1;fillColor=#009900;align=left;verticalAlign=middle;" parent="13" vertex="1">
                    <mxGeometry x="563" y="23" width="80" height="80" as="geometry"/>
                </mxCell>
                <mxCell id="34" value="阿里云-Server" style="text;html=1;strokeColor=none;fillColor=none;align=center;verticalAlign=middle;whiteSpace=wrap;rounded=0;shadow=0;dashed=0;fontSize=14;fontColor=#000000;" parent="13" vertex="1">
                    <mxGeometry x="420" y="109" width="110" height="20" as="geometry"/>
                </mxCell>
                <mxCell id="12" value="" style="group;gradientColor=#7ea6e0;fillColor=#dae8fc;strokeColor=#6c8ebf;fontColor=#000000;" parent="1" vertex="1" connectable="0">
                    <mxGeometry x="38" y="399" width="790" height="189" as="geometry"/>
                </mxCell>
                <mxCell id="7" value="" style="rounded=0;whiteSpace=wrap;html=1;shadow=0;dashed=0;fontSize=14;fontColor=#000000;fillColor=#ffffff;align=left;verticalAlign=top;strokeColor=#000000;strokeWidth=2;" parent="12" vertex="1">
                    <mxGeometry width="790" height="189" as="geometry"/>
                </mxCell>
                <mxCell id="10" value="&lt;font color=&quot;#000000&quot;&gt;系统业务层&lt;/font&gt;" style="rounded=0;whiteSpace=wrap;html=1;shadow=0;dashed=0;fontSize=14;strokeColor=#82b366;strokeWidth=1;fillColor=#d5e8d4;align=left;verticalAlign=middle;gradientColor=#97d077;" parent="12" vertex="1">
                    <mxGeometry width="90" height="187.81875" as="geometry"/>
                </mxCell>
                <mxCell id="36" value="商品管理服务" style="rounded=1;whiteSpace=wrap;html=1;shadow=0;dashed=0;fontSize=14;strokeColor=#6c8ebf;strokeWidth=1;fillColor=#dae8fc;align=center;verticalAlign=middle;gradientColor=#7ea6e0;fontColor=#000000;" parent="12" vertex="1">
                    <mxGeometry x="106" y="37" width="120" height="60" as="geometry"/>
                </mxCell>
                <mxCell id="37" value="商品销售服务" style="rounded=1;whiteSpace=wrap;html=1;shadow=0;dashed=0;fontSize=14;strokeColor=#6c8ebf;strokeWidth=1;fillColor=#dae8fc;align=center;verticalAlign=middle;gradientColor=#7ea6e0;fontColor=#000000;" parent="12" vertex="1">
                    <mxGeometry x="301" y="37" width="120" height="60" as="geometry"/>
                </mxCell>
                <mxCell id="45" value="" style="shape=doubleArrow;direction=south;whiteSpace=wrap;html=1;shadow=0;dashed=0;fontSize=14;strokeColor=#6c8ebf;strokeWidth=1;fillColor=#dae8fc;align=center;verticalAlign=middle;gradientColor=#7ea6e0;" parent="12" vertex="1">
                    <mxGeometry x="353" y="-23" width="50" height="49" as="geometry"/>
                </mxCell>
                <mxCell id="46" value="" style="shape=doubleArrow;direction=south;whiteSpace=wrap;html=1;shadow=0;dashed=0;fontSize=14;strokeColor=#6c8ebf;strokeWidth=1;fillColor=#dae8fc;align=center;verticalAlign=middle;gradientColor=#7ea6e0;" parent="12" vertex="1">
                    <mxGeometry x="514" y="-25" width="50" height="49" as="geometry"/>
                </mxCell>
                <mxCell id="16" value="" style="group;verticalAlign=middle;labelPosition=center;verticalLabelPosition=top;align=center;" parent="1" vertex="1" connectable="0">
                    <mxGeometry x="38" y="67" width="790" height="229" as="geometry"/>
                </mxCell>
                <mxCell id="5" value="" style="rounded=0;whiteSpace=wrap;html=1;shadow=0;dashed=0;fontSize=14;fontColor=#000000;fillColor=#ffffff;align=left;verticalAlign=top;strokeWidth=2;strokeColor=#000000;" parent="16" vertex="1">
                    <mxGeometry width="790" height="160" as="geometry"/>
                </mxCell>
                <mxCell id="8" value="终端用户层" style="rounded=0;shadow=0;dashed=0;fontSize=14;strokeColor=#6c8ebf;strokeWidth=1;align=left;verticalAlign=middle;fillColor=#dae8fc;gradientColor=#7ea6e0;fontColor=#000000;whiteSpace=wrap;html=1;" parent="16" vertex="1">
                    <mxGeometry width="91" height="160" as="geometry"/>
                </mxCell>
                <mxCell id="21" value="" style="aspect=fixed;html=1;points=[];align=center;image;fontSize=12;image=img/lib/mscae/Two_User_Icon.svg;shadow=0;dashed=0;fontColor=#000000;strokeColor=#000000;strokeWidth=1;fillColor=#009900;" parent="16" vertex="1">
                    <mxGeometry x="210" y="50" width="50" height="50" as="geometry"/>
                </mxCell>
                <mxCell id="22" value="" style="verticalLabelPosition=bottom;html=1;verticalAlign=top;align=center;strokeColor=none;fillColor=#00BEF2;shape=mxgraph.azure.mobile;pointerEvents=1;shadow=0;dashed=0;fontSize=14;fontColor=#000000;" parent="16" vertex="1">
                    <mxGeometry x="360" y="44" width="35" height="50" as="geometry"/>
                </mxCell>
                <mxCell id="25" value="" style="image;html=1;image=img/lib/clip_art/computers/iPad_128x128.png;shadow=0;dashed=0;fontSize=14;fontColor=#000000;strokeColor=#000000;strokeWidth=1;fillColor=#009900;align=left;verticalAlign=middle;" parent="16" vertex="1">
                    <mxGeometry x="436" y="35" width="80" height="80" as="geometry"/>
                </mxCell>
                <mxCell id="39" value="" style="shape=doubleArrow;direction=south;whiteSpace=wrap;html=1;shadow=0;dashed=0;fontSize=14;strokeColor=#6c8ebf;strokeWidth=1;fillColor=#dae8fc;align=center;verticalAlign=middle;gradientColor=#7ea6e0;" parent="16" vertex="1">
                    <mxGeometry x="200" y="135" width="50" height="49" as="geometry"/>
                </mxCell>
                <mxCell id="40" value="" style="shape=doubleArrow;direction=south;whiteSpace=wrap;html=1;shadow=0;dashed=0;fontSize=14;strokeColor=#6c8ebf;strokeWidth=1;fillColor=#dae8fc;align=center;verticalAlign=middle;gradientColor=#7ea6e0;" parent="16" vertex="1">
                    <mxGeometry x="352.5" y="132" width="50" height="49" as="geometry"/>
                </mxCell>
                <mxCell id="43" value="" style="shape=doubleArrow;direction=south;whiteSpace=wrap;html=1;shadow=0;dashed=0;fontSize=14;strokeColor=#6c8ebf;strokeWidth=1;fillColor=#dae8fc;align=center;verticalAlign=middle;gradientColor=#7ea6e0;" parent="16" vertex="1">
                    <mxGeometry x="502" y="135" width="50" height="49" as="geometry"/>
                </mxCell>
                <mxCell id="35" value="阿里云-MySql" style="text;html=1;strokeColor=none;fillColor=none;align=center;verticalAlign=middle;whiteSpace=wrap;rounded=0;shadow=0;dashed=0;fontSize=14;fontColor=#000000;" parent="1" vertex="1">
                    <mxGeometry x="593" y="354" width="110" height="20" as="geometry"/>
                </mxCell>
                <mxCell id="44" value="" style="shape=doubleArrow;direction=south;whiteSpace=wrap;html=1;shadow=0;dashed=0;fontSize=14;strokeColor=#6c8ebf;strokeWidth=1;fillColor=#dae8fc;align=center;verticalAlign=middle;gradientColor=#7ea6e0;" parent="1" vertex="1">
                    <mxGeometry x="236" y="374" width="50" height="49" as="geometry"/>
                </mxCell>
            </root>
        </mxGraphModel>
    </diagram>
    <diagram id="01FWoqNiBJOr39dQA9yt" name="网络拓扑图">
        <mxGraphModel dx="948" dy="790" grid="1" gridSize="10" guides="1" tooltips="1" connect="1" arrows="1" fold="1" page="1" pageScale="1" pageWidth="1100" pageHeight="850" math="0" shadow="0">
            <root>
                <mxCell id="fJbEucU3Dqj15dh8Vf1m-0"/>
                <mxCell id="fJbEucU3Dqj15dh8Vf1m-1" parent="fJbEucU3Dqj15dh8Vf1m-0"/>
                <mxCell id="fJbEucU3Dqj15dh8Vf1m-5" value="" style="rounded=0;whiteSpace=wrap;html=1;shadow=0;dashed=0;fontSize=14;strokeColor=#666666;strokeWidth=1;fillColor=#f5f5f5;align=center;verticalAlign=middle;fontColor=#333333;" parent="fJbEucU3Dqj15dh8Vf1m-1" vertex="1">
                    <mxGeometry x="90" y="125" width="820" height="610" as="geometry"/>
                </mxCell>
                <mxCell id="fJbEucU3Dqj15dh8Vf1m-9" value="" style="line;strokeWidth=2;direction=south;html=1;shadow=0;dashed=1;sketch=0;fontSize=14;fontColor=#000000;fillColor=none;align=center;verticalAlign=middle;strokeColor=#000000;" parent="fJbEucU3Dqj15dh8Vf1m-1" vertex="1">
                    <mxGeometry x="360" y="130" width="10" height="520" as="geometry"/>
                </mxCell>
                <mxCell id="fJbEucU3Dqj15dh8Vf1m-10" value="" style="line;strokeWidth=2;html=1;shadow=0;dashed=1;sketch=0;fontSize=14;fontColor=#000000;fillColor=none;align=center;verticalAlign=middle;strokeColor=#000000;" parent="fJbEucU3Dqj15dh8Vf1m-1" vertex="1">
                    <mxGeometry x="100" y="670" width="810" height="10" as="geometry"/>
                </mxCell>
                <mxCell id="fJbEucU3Dqj15dh8Vf1m-11" value="&lt;b&gt;&lt;font style=&quot;font-size: 15px&quot;&gt;网络拓扑图&lt;/font&gt;&lt;/b&gt;" style="text;html=1;strokeColor=none;fillColor=none;align=center;verticalAlign=middle;whiteSpace=wrap;rounded=0;shadow=0;dashed=1;sketch=0;fontSize=14;fontColor=#000000;" parent="fJbEucU3Dqj15dh8Vf1m-1" vertex="1">
                    <mxGeometry x="350" y="690" width="220" height="20" as="geometry"/>
                </mxCell>
                <mxCell id="fJbEucU3Dqj15dh8Vf1m-12" value="" style="line;strokeWidth=2;direction=south;html=1;shadow=0;dashed=1;sketch=0;fontSize=14;fontColor=#000000;fillColor=none;align=center;verticalAlign=middle;strokeColor=#000000;" parent="fJbEucU3Dqj15dh8Vf1m-1" vertex="1">
                    <mxGeometry x="680" y="130" width="10" height="520" as="geometry"/>
                </mxCell>
                <mxCell id="fJbEucU3Dqj15dh8Vf1m-13" value="无线网络" style="ellipse;shape=cloud;whiteSpace=wrap;html=1;shadow=0;dashed=1;sketch=0;fontSize=14;fontColor=#000000;strokeColor=#000000;strokeWidth=2;fillColor=none;align=center;verticalAlign=middle;" parent="fJbEucU3Dqj15dh8Vf1m-1" vertex="1">
                    <mxGeometry x="430" y="300" width="190" height="110" as="geometry"/>
                </mxCell>
                <mxCell id="fJbEucU3Dqj15dh8Vf1m-18" value="" style="group" parent="fJbEucU3Dqj15dh8Vf1m-1" vertex="1" connectable="0">
                    <mxGeometry x="200" y="190" width="90" height="110" as="geometry"/>
                </mxCell>
                <mxCell id="fJbEucU3Dqj15dh8Vf1m-3" value="" style="image;html=1;image=img/lib/clip_art/networking/Cloud_Server_128x128.png;shadow=0;dashed=0;fontSize=14;fontColor=#000000;strokeColor=#000000;strokeWidth=1;fillColor=#009900;align=center;verticalAlign=middle;" parent="fJbEucU3Dqj15dh8Vf1m-18" vertex="1">
                    <mxGeometry width="80" height="80" as="geometry"/>
                </mxCell>
                <mxCell id="fJbEucU3Dqj15dh8Vf1m-14" value="阿里云服务器" style="text;html=1;strokeColor=none;fillColor=none;align=center;verticalAlign=middle;whiteSpace=wrap;rounded=0;shadow=0;dashed=1;sketch=0;fontSize=14;fontColor=#000000;" parent="fJbEucU3Dqj15dh8Vf1m-18" vertex="1">
                    <mxGeometry y="80" width="90" height="30" as="geometry"/>
                </mxCell>
                <mxCell id="fJbEucU3Dqj15dh8Vf1m-19" value="" style="group" parent="fJbEucU3Dqj15dh8Vf1m-1" vertex="1" connectable="0">
                    <mxGeometry x="180" y="340" width="125" height="120" as="geometry"/>
                </mxCell>
                <mxCell id="fJbEucU3Dqj15dh8Vf1m-4" value="" style="image;html=1;image=img/lib/clip_art/networking/Cloud_Storage_128x128.png;shadow=0;dashed=0;fontSize=14;fontColor=#000000;strokeColor=#000000;strokeWidth=1;fillColor=#009900;align=center;verticalAlign=middle;" parent="fJbEucU3Dqj15dh8Vf1m-19" vertex="1">
                    <mxGeometry x="22.5" width="80" height="80" as="geometry"/>
                </mxCell>
                <mxCell id="fJbEucU3Dqj15dh8Vf1m-15" value="阿里云数据存储Mysql" style="text;html=1;strokeColor=none;fillColor=none;align=center;verticalAlign=middle;whiteSpace=wrap;rounded=0;shadow=0;dashed=1;sketch=0;fontSize=14;fontColor=#000000;" parent="fJbEucU3Dqj15dh8Vf1m-19" vertex="1">
                    <mxGeometry y="90" width="125" height="30" as="geometry"/>
                </mxCell>
                <mxCell id="fJbEucU3Dqj15dh8Vf1m-22" value="" style="group" parent="fJbEucU3Dqj15dh8Vf1m-1" vertex="1" connectable="0">
                    <mxGeometry x="204" y="480" width="77" height="90" as="geometry"/>
                </mxCell>
                <mxCell id="fJbEucU3Dqj15dh8Vf1m-17" value="" style="html=1;dashed=0;whitespace=wrap;fillColor=#2875E2;strokeColor=#ffffff;points=[[0.005,0.63,0],[0.1,0.2,0],[0.9,0.2,0],[0.5,0,0],[0.995,0.63,0],[0.72,0.99,0],[0.5,1,0],[0.28,0.99,0]];shape=mxgraph.kubernetes.icon;prIcon=api;shadow=0;sketch=0;fontSize=14;fontColor=#000000;align=center;verticalAlign=middle;" parent="fJbEucU3Dqj15dh8Vf1m-22" vertex="1">
                    <mxGeometry x="13.5" width="50" height="48" as="geometry"/>
                </mxCell>
                <mxCell id="fJbEucU3Dqj15dh8Vf1m-20" value="微信API" style="text;html=1;strokeColor=none;fillColor=none;align=center;verticalAlign=middle;whiteSpace=wrap;rounded=0;shadow=0;dashed=1;sketch=0;fontSize=14;fontColor=#000000;" parent="fJbEucU3Dqj15dh8Vf1m-22" vertex="1">
                    <mxGeometry y="70" width="77" height="20" as="geometry"/>
                </mxCell>
                <mxCell id="fJbEucU3Dqj15dh8Vf1m-23" value="&lt;font style=&quot;font-size: 15px&quot;&gt;&lt;b&gt;机房侧&lt;/b&gt;&lt;/font&gt;" style="text;html=1;strokeColor=none;fillColor=none;align=center;verticalAlign=middle;whiteSpace=wrap;rounded=0;shadow=0;dashed=1;sketch=0;fontSize=14;fontColor=#000000;" parent="fJbEucU3Dqj15dh8Vf1m-1" vertex="1">
                    <mxGeometry x="180" y="620" width="110" height="20" as="geometry"/>
                </mxCell>
                <mxCell id="fJbEucU3Dqj15dh8Vf1m-24" value="&lt;span style=&quot;font-size: 15px&quot;&gt;&lt;b&gt;网络侧&lt;/b&gt;&lt;/span&gt;" style="text;html=1;strokeColor=none;fillColor=none;align=center;verticalAlign=middle;whiteSpace=wrap;rounded=0;shadow=0;dashed=1;sketch=0;fontSize=14;fontColor=#000000;" parent="fJbEucU3Dqj15dh8Vf1m-1" vertex="1">
                    <mxGeometry x="450" y="620" width="110" height="20" as="geometry"/>
                </mxCell>
                <mxCell id="fJbEucU3Dqj15dh8Vf1m-25" value="&lt;span style=&quot;font-size: 15px&quot;&gt;&lt;b&gt;终端侧&lt;/b&gt;&lt;/span&gt;" style="text;html=1;strokeColor=none;fillColor=none;align=center;verticalAlign=middle;whiteSpace=wrap;rounded=0;shadow=0;dashed=1;sketch=0;fontSize=14;fontColor=#000000;" parent="fJbEucU3Dqj15dh8Vf1m-1" vertex="1">
                    <mxGeometry x="740" y="620" width="110" height="20" as="geometry"/>
                </mxCell>
                <mxCell id="fJbEucU3Dqj15dh8Vf1m-31" value="" style="group" parent="fJbEucU3Dqj15dh8Vf1m-1" vertex="1" connectable="0">
                    <mxGeometry x="750" y="200" width="62.5" height="50" as="geometry"/>
                </mxCell>
                <mxCell id="fJbEucU3Dqj15dh8Vf1m-28" value="" style="verticalLabelPosition=bottom;html=1;verticalAlign=top;align=center;strokeColor=none;fillColor=#00BEF2;shape=mxgraph.azure.mobile;pointerEvents=1;shadow=0;dashed=1;sketch=0;fontSize=14;fontColor=#000000;" parent="fJbEucU3Dqj15dh8Vf1m-31" vertex="1">
                    <mxGeometry x="47.5" width="15" height="30" as="geometry"/>
                </mxCell>
                <mxCell id="fJbEucU3Dqj15dh8Vf1m-29" value="" style="verticalLabelPosition=bottom;html=1;verticalAlign=top;align=center;strokeColor=none;fillColor=#00BEF2;shape=mxgraph.azure.user;shadow=0;dashed=1;sketch=0;fontSize=14;fontColor=#000000;" parent="fJbEucU3Dqj15dh8Vf1m-31" vertex="1">
                    <mxGeometry width="47.5" height="50" as="geometry"/>
                </mxCell>
                <mxCell id="fJbEucU3Dqj15dh8Vf1m-34" value="" style="group" parent="fJbEucU3Dqj15dh8Vf1m-1" vertex="1" connectable="0">
                    <mxGeometry x="750" y="320" width="62.5" height="50" as="geometry"/>
                </mxCell>
                <mxCell id="fJbEucU3Dqj15dh8Vf1m-35" value="" style="verticalLabelPosition=bottom;html=1;verticalAlign=top;align=center;strokeColor=none;fillColor=#00BEF2;shape=mxgraph.azure.mobile;pointerEvents=1;shadow=0;dashed=1;sketch=0;fontSize=14;fontColor=#000000;" parent="fJbEucU3Dqj15dh8Vf1m-34" vertex="1">
                    <mxGeometry x="47.5" width="15" height="30" as="geometry"/>
                </mxCell>
                <mxCell id="fJbEucU3Dqj15dh8Vf1m-36" value="" style="verticalLabelPosition=bottom;html=1;verticalAlign=top;align=center;strokeColor=none;fillColor=#00BEF2;shape=mxgraph.azure.user;shadow=0;dashed=1;sketch=0;fontSize=14;fontColor=#000000;" parent="fJbEucU3Dqj15dh8Vf1m-34" vertex="1">
                    <mxGeometry width="47.5" height="50" as="geometry"/>
                </mxCell>
                <mxCell id="fJbEucU3Dqj15dh8Vf1m-37" value="" style="group" parent="fJbEucU3Dqj15dh8Vf1m-1" vertex="1" connectable="0">
                    <mxGeometry x="750" y="450" width="62.5" height="50" as="geometry"/>
                </mxCell>
                <mxCell id="fJbEucU3Dqj15dh8Vf1m-38" value="" style="verticalLabelPosition=bottom;html=1;verticalAlign=top;align=center;strokeColor=none;fillColor=#00BEF2;shape=mxgraph.azure.mobile;pointerEvents=1;shadow=0;dashed=1;sketch=0;fontSize=14;fontColor=#000000;" parent="fJbEucU3Dqj15dh8Vf1m-37" vertex="1">
                    <mxGeometry x="47.5" width="15" height="30" as="geometry"/>
                </mxCell>
                <mxCell id="fJbEucU3Dqj15dh8Vf1m-39" value="" style="verticalLabelPosition=bottom;html=1;verticalAlign=top;align=center;strokeColor=none;fillColor=#00BEF2;shape=mxgraph.azure.user;shadow=0;dashed=1;sketch=0;fontSize=14;fontColor=#000000;" parent="fJbEucU3Dqj15dh8Vf1m-37" vertex="1">
                    <mxGeometry width="47.5" height="50" as="geometry"/>
                </mxCell>
                <mxCell id="fJbEucU3Dqj15dh8Vf1m-41" value="" style="line;strokeWidth=2;html=1;shadow=0;sketch=0;fontSize=14;fontColor=#000000;fillColor=none;align=center;verticalAlign=middle;rotation=30;strokeColor=#CC6600;" parent="fJbEucU3Dqj15dh8Vf1m-1" vertex="1">
                    <mxGeometry x="273.76" y="278.39" width="176.9" height="10" as="geometry"/>
                </mxCell>
                <mxCell id="fJbEucU3Dqj15dh8Vf1m-42" value="" style="line;strokeWidth=2;html=1;shadow=0;sketch=0;fontSize=14;fontColor=#000000;fillColor=none;align=center;verticalAlign=middle;rotation=0;strokeColor=#CC6600;" parent="fJbEucU3Dqj15dh8Vf1m-1" vertex="1">
                    <mxGeometry x="290" y="375" width="150" height="10" as="geometry"/>
                </mxCell>
                <mxCell id="fJbEucU3Dqj15dh8Vf1m-43" value="" style="line;strokeWidth=2;html=1;shadow=0;sketch=0;fontSize=14;fontColor=#000000;fillColor=none;align=center;verticalAlign=middle;rotation=-30;strokeColor=#CC6600;" parent="fJbEucU3Dqj15dh8Vf1m-1" vertex="1">
                    <mxGeometry x="266.94" y="450" width="199" height="10" as="geometry"/>
                </mxCell>
                <mxCell id="fJbEucU3Dqj15dh8Vf1m-46" value="" style="shape=singleArrow;whiteSpace=wrap;html=1;shadow=0;sketch=0;fontSize=14;fontColor=#000000;strokeColor=#00CCCC;strokeWidth=2;fillColor=#00CCCC;align=center;verticalAlign=middle;rotation=-30;" parent="fJbEucU3Dqj15dh8Vf1m-1" vertex="1">
                    <mxGeometry x="611.34" y="285.83" width="120" height="12.08" as="geometry"/>
                </mxCell>
                <mxCell id="fJbEucU3Dqj15dh8Vf1m-47" value="" style="shape=singleArrow;whiteSpace=wrap;html=1;shadow=0;sketch=0;fontSize=14;fontColor=#000000;strokeColor=#00CCCC;strokeWidth=2;fillColor=#00CCCC;align=center;verticalAlign=middle;rotation=0;" parent="fJbEucU3Dqj15dh8Vf1m-1" vertex="1">
                    <mxGeometry x="620" y="357.91999999999996" width="120" height="12.08" as="geometry"/>
                </mxCell>
                <mxCell id="fJbEucU3Dqj15dh8Vf1m-48" value="" style="shape=singleArrow;whiteSpace=wrap;html=1;shadow=0;sketch=0;fontSize=14;fontColor=#000000;strokeColor=#00CCCC;strokeWidth=2;fillColor=#00CCCC;align=center;verticalAlign=middle;rotation=30;" parent="fJbEucU3Dqj15dh8Vf1m-1" vertex="1">
                    <mxGeometry x="610.67" y="437.5" width="130" height="12.08" as="geometry"/>
                </mxCell>
            </root>
        </mxGraphModel>
    </diagram>
    <diagram id="ExM8x_58-x6gZCc6ZBEW" name="用户购物流程">
        <mxGraphModel dx="948" dy="790" grid="1" gridSize="10" guides="1" tooltips="1" connect="1" arrows="1" fold="1" page="1" pageScale="1" pageWidth="1100" pageHeight="850" math="0" shadow="0">
            <root>
                <mxCell id="rtPGg8NePpWLPW3wqGI3-0"/>
                <mxCell id="rtPGg8NePpWLPW3wqGI3-1" parent="rtPGg8NePpWLPW3wqGI3-0"/>
                <mxCell id="rtPGg8NePpWLPW3wqGI3-8" style="edgeStyle=orthogonalEdgeStyle;rounded=0;orthogonalLoop=1;jettySize=auto;html=1;entryX=0;entryY=0.5;entryDx=0;entryDy=0;curved=1;" parent="rtPGg8NePpWLPW3wqGI3-1" source="rtPGg8NePpWLPW3wqGI3-2" target="rtPGg8NePpWLPW3wqGI3-4" edge="1">
                    <mxGeometry relative="1" as="geometry">
                        <Array as="points">
                            <mxPoint x="110" y="310"/>
                            <mxPoint x="240" y="310"/>
                            <mxPoint x="240" y="250"/>
                        </Array>
                    </mxGeometry>
                </mxCell>
                <mxCell id="rtPGg8NePpWLPW3wqGI3-9" value="Text" style="edgeLabel;html=1;align=center;verticalAlign=middle;resizable=0;points=[];" parent="rtPGg8NePpWLPW3wqGI3-8" vertex="1" connectable="0">
                    <mxGeometry x="-0.1355" y="4" relative="1" as="geometry">
                        <mxPoint as="offset"/>
                    </mxGeometry>
                </mxCell>
                <mxCell id="rtPGg8NePpWLPW3wqGI3-10" value="选购" style="edgeLabel;html=1;align=center;verticalAlign=middle;resizable=0;points=[];" parent="rtPGg8NePpWLPW3wqGI3-8" vertex="1" connectable="0">
                    <mxGeometry x="-0.1226" y="5" relative="1" as="geometry">
                        <mxPoint as="offset"/>
                    </mxGeometry>
                </mxCell>
                <mxCell id="rtPGg8NePpWLPW3wqGI3-11" style="edgeStyle=orthogonalEdgeStyle;curved=1;rounded=0;orthogonalLoop=1;jettySize=auto;html=1;entryX=0;entryY=0.5;entryDx=0;entryDy=0;" parent="rtPGg8NePpWLPW3wqGI3-1" source="rtPGg8NePpWLPW3wqGI3-2" target="rtPGg8NePpWLPW3wqGI3-5" edge="1">
                    <mxGeometry relative="1" as="geometry"/>
                </mxCell>
                <mxCell id="rtPGg8NePpWLPW3wqGI3-12" value="立即购买" style="edgeLabel;html=1;align=center;verticalAlign=middle;resizable=0;points=[];" parent="rtPGg8NePpWLPW3wqGI3-11" vertex="1" connectable="0">
                    <mxGeometry x="-0.1043" y="-10" relative="1" as="geometry">
                        <mxPoint as="offset"/>
                    </mxGeometry>
                </mxCell>
                <mxCell id="rtPGg8NePpWLPW3wqGI3-2" value="选购商品" style="rounded=1;whiteSpace=wrap;html=1;" parent="rtPGg8NePpWLPW3wqGI3-1" vertex="1">
                    <mxGeometry x="50" y="330" width="120" height="60" as="geometry"/>
                </mxCell>
                <mxCell id="rtPGg8NePpWLPW3wqGI3-13" style="rounded=0;orthogonalLoop=1;jettySize=auto;html=1;entryX=0.5;entryY=0;entryDx=0;entryDy=0;" parent="rtPGg8NePpWLPW3wqGI3-1" source="rtPGg8NePpWLPW3wqGI3-4" target="rtPGg8NePpWLPW3wqGI3-5" edge="1">
                    <mxGeometry relative="1" as="geometry"/>
                </mxCell>
                <mxCell id="rtPGg8NePpWLPW3wqGI3-14" value="购买" style="edgeLabel;html=1;align=center;verticalAlign=middle;resizable=0;points=[];" parent="rtPGg8NePpWLPW3wqGI3-13" vertex="1" connectable="0">
                    <mxGeometry x="-0.3" y="3" relative="1" as="geometry">
                        <mxPoint as="offset"/>
                    </mxGeometry>
                </mxCell>
                <mxCell id="rtPGg8NePpWLPW3wqGI3-4" value="购物车" style="rounded=1;whiteSpace=wrap;html=1;" parent="rtPGg8NePpWLPW3wqGI3-1" vertex="1">
                    <mxGeometry x="340" y="220" width="120" height="60" as="geometry"/>
                </mxCell>
                <mxCell id="rtPGg8NePpWLPW3wqGI3-16" style="edgeStyle=none;rounded=0;orthogonalLoop=1;jettySize=auto;html=1;entryX=0;entryY=0.5;entryDx=0;entryDy=0;" parent="rtPGg8NePpWLPW3wqGI3-1" source="rtPGg8NePpWLPW3wqGI3-5" target="rtPGg8NePpWLPW3wqGI3-7" edge="1">
                    <mxGeometry relative="1" as="geometry"/>
                </mxCell>
                <mxCell id="rtPGg8NePpWLPW3wqGI3-17" value="下单" style="edgeLabel;html=1;align=center;verticalAlign=middle;resizable=0;points=[];" parent="rtPGg8NePpWLPW3wqGI3-16" vertex="1" connectable="0">
                    <mxGeometry x="-0.2" relative="1" as="geometry">
                        <mxPoint as="offset"/>
                    </mxGeometry>
                </mxCell>
                <mxCell id="rtPGg8NePpWLPW3wqGI3-5" value="订单清单" style="rounded=1;whiteSpace=wrap;html=1;" parent="rtPGg8NePpWLPW3wqGI3-1" vertex="1">
                    <mxGeometry x="340" y="380" width="120" height="60" as="geometry"/>
                </mxCell>
                <mxCell id="rtPGg8NePpWLPW3wqGI3-19" value="" style="edgeStyle=none;rounded=0;orthogonalLoop=1;jettySize=auto;html=1;" parent="rtPGg8NePpWLPW3wqGI3-1" source="rtPGg8NePpWLPW3wqGI3-7" target="rtPGg8NePpWLPW3wqGI3-18" edge="1">
                    <mxGeometry relative="1" as="geometry"/>
                </mxCell>
                <mxCell id="rtPGg8NePpWLPW3wqGI3-20" value="支付成功" style="edgeLabel;html=1;align=center;verticalAlign=middle;resizable=0;points=[];" parent="rtPGg8NePpWLPW3wqGI3-19" vertex="1" connectable="0">
                    <mxGeometry x="-0.2308" y="-1" relative="1" as="geometry">
                        <mxPoint as="offset"/>
                    </mxGeometry>
                </mxCell>
                <mxCell id="rtPGg8NePpWLPW3wqGI3-23" style="edgeStyle=orthogonalEdgeStyle;rounded=0;orthogonalLoop=1;jettySize=auto;html=1;entryX=0.25;entryY=0;entryDx=0;entryDy=0;" parent="rtPGg8NePpWLPW3wqGI3-1" source="rtPGg8NePpWLPW3wqGI3-7" target="rtPGg8NePpWLPW3wqGI3-7" edge="1">
                    <mxGeometry relative="1" as="geometry">
                        <mxPoint x="750" y="250" as="targetPoint"/>
                        <Array as="points">
                            <mxPoint x="650" y="360"/>
                            <mxPoint x="730" y="360"/>
                            <mxPoint x="730" y="300"/>
                            <mxPoint x="620" y="300"/>
                        </Array>
                    </mxGeometry>
                </mxCell>
                <mxCell id="rtPGg8NePpWLPW3wqGI3-24" value="支付失败" style="edgeLabel;html=1;align=center;verticalAlign=middle;resizable=0;points=[];" parent="rtPGg8NePpWLPW3wqGI3-23" vertex="1" connectable="0">
                    <mxGeometry x="0.3543" y="-3" relative="1" as="geometry">
                        <mxPoint as="offset"/>
                    </mxGeometry>
                </mxCell>
                <mxCell id="rtPGg8NePpWLPW3wqGI3-7" value="待付订单" style="rounded=1;whiteSpace=wrap;html=1;" parent="rtPGg8NePpWLPW3wqGI3-1" vertex="1">
                    <mxGeometry x="590" y="380" width="120" height="60" as="geometry"/>
                </mxCell>
                <mxCell id="rtPGg8NePpWLPW3wqGI3-18" value="订单" style="whiteSpace=wrap;html=1;rounded=1;" parent="rtPGg8NePpWLPW3wqGI3-1" vertex="1">
                    <mxGeometry x="840" y="380" width="120" height="60" as="geometry"/>
                </mxCell>
                <mxCell id="rtPGg8NePpWLPW3wqGI3-26" value="1. 生成订单清单前，检查用户是否登录" style="text;html=1;strokeColor=none;fillColor=none;align=center;verticalAlign=middle;whiteSpace=wrap;rounded=0;fontColor=#FF0000;" parent="rtPGg8NePpWLPW3wqGI3-1" vertex="1">
                    <mxGeometry x="40" y="70" width="250" height="20" as="geometry"/>
                </mxCell>
            </root>
        </mxGraphModel>
    </diagram>
    <diagram id="7Hzf8RNBwKKPbnxorK81" name="WebWinodwStorage">
        <mxGraphModel dx="948" dy="790" grid="1" gridSize="10" guides="1" tooltips="1" connect="1" arrows="1" fold="1" page="1" pageScale="1" pageWidth="1100" pageHeight="850" math="0" shadow="0">
            <root>
                <mxCell id="vjdWPhTV5Z2zP2kFDylB-0"/>
                <mxCell id="vjdWPhTV5Z2zP2kFDylB-1" parent="vjdWPhTV5Z2zP2kFDylB-0"/>
                <mxCell id="vjdWPhTV5Z2zP2kFDylB-4" value="为什么考虑将Goods信息储存在Windows Local Storage&lt;br&gt;1. 网上商店主要是查询商品信息(Select)， 不会对商品信息进行跟新和删除&lt;br style=&quot;font-size: 14px&quot;&gt;好处:&lt;br&gt;1. 应用在启动时，获取Goods的所有信息。 后期对商品的查询，可以前端进行处理。&lt;br&gt;&lt;br&gt;坏处:&lt;br&gt;1. 储存在windows local storage中的数据无安全性" style="text;html=1;strokeColor=#36393d;fillColor=#eeeeee;align=left;verticalAlign=top;whiteSpace=wrap;rounded=0;fontColor=#000000;fontSize=14;" parent="vjdWPhTV5Z2zP2kFDylB-1" vertex="1">
                    <mxGeometry x="30" y="50" width="700" height="140" as="geometry"/>
                </mxCell>
            </root>
        </mxGraphModel>
    </diagram>
</mxfile>